<svg width="800" height="800" viewBox="0 0 800 800" fill="none" xmlns="http://www.w3.org/2000/svg">
<path fill-rule="evenodd" clip-rule="evenodd" d="M133.333 214.119C110.322 214.119 91.6667 232.773 91.6667 255.785V655.785C91.6667 678.797 110.322 697.452 133.333 697.452H666.667C689.679 697.452 708.333 678.797 708.333 655.785V255.785C708.333 232.773 689.679 214.119 666.667 214.119H133.333ZM41.6667 255.785C41.6667 205.159 82.7073 164.119 133.333 164.119H666.667C717.293 164.119 758.333 205.159 758.333 255.785V655.785C758.333 706.411 717.293 747.452 666.667 747.452H133.333C82.7073 747.452 41.6667 706.411 41.6667 655.785V255.785Z" fill="#CEE401"/>
<path fill-rule="evenodd" clip-rule="evenodd" d="M508.125 56.0825C521.795 52.1725 536.187 51.4959 550.163 54.1062C564.14 56.7166 577.317 62.5423 588.654 71.1229C599.991 79.7034 609.177 90.8036 615.485 103.546C621.785 116.271 625.042 130.286 625 144.485V189.119C625 202.926 613.807 214.119 600 214.119C586.193 214.119 575 202.926 575 189.119V144.452L575 144.363C575.023 137.9 573.543 131.521 570.675 125.729C567.808 119.937 563.633 114.891 558.479 110.991C553.326 107.091 547.336 104.443 540.984 103.256C534.635 102.071 528.098 102.377 521.888 104.151C521.884 104.152 521.88 104.153 521.875 104.155L102.901 224.481C89.6303 228.292 75.7826 220.623 71.9714 207.353C68.1602 194.082 75.8286 180.234 89.0993 176.423L508.125 56.0825Z" fill="#CEE401"/>
<path fill-rule="evenodd" clip-rule="evenodd" d="M536.939 380.725C555.255 362.408 580.097 352.119 606 352.119H733.333C747.14 352.119 758.333 363.312 758.333 377.119C758.333 390.926 747.14 402.119 733.333 402.119H606C593.358 402.119 581.234 407.141 572.295 416.08C563.369 425.006 558.348 437.107 558.333 449.728C558.406 462.362 563.457 474.459 572.391 483.394C581.328 492.33 593.427 497.381 606.063 497.452H733.333C747.14 497.452 758.333 508.645 758.333 522.452C758.333 536.259 747.14 547.452 733.333 547.452H606L605.886 547.452C580.05 547.334 555.305 537.018 537.036 518.749C518.767 500.48 508.451 475.735 508.334 449.899L508.333 449.785C508.333 423.882 518.623 399.041 536.939 380.725Z" fill="#CEE401"/>
</svg>
