<svg width="800" height="800" viewBox="0 0 800 800" fill="none" xmlns="http://www.w3.org/2000/svg">
<path fill-rule="evenodd" clip-rule="evenodd" d="M151.667 597.667H392.667V775H151.667V597.667ZM201.667 647.667V725H342.667V647.667H201.667Z" fill="#CEE401"/>
<path fill-rule="evenodd" clip-rule="evenodd" d="M24.3333 470.333H265.333V647.667H24.3333V470.333ZM74.3333 520.333V597.667H215.333V520.333H74.3333Z" fill="#CEE401"/>
<path fill-rule="evenodd" clip-rule="evenodd" d="M119.667 343.333H360.667V520.667H119.667V343.333ZM169.667 393.333V470.667H310.667V393.333H169.667Z" fill="#CEE401"/>
<path fill-rule="evenodd" clip-rule="evenodd" d="M215 470.333H456V647.667H215V470.333ZM265 520.333V597.667H406V520.333H265Z" fill="#CEE401"/>
<path fill-rule="evenodd" clip-rule="evenodd" d="M406 470.333H647V647.667H406V470.333ZM456 520.333V597.667H597V520.333H456Z" fill="#CEE401"/>
<path fill-rule="evenodd" clip-rule="evenodd" d="M342.333 597.667H583.333V775H342.333V597.667ZM392.333 647.667V725H533.333V647.667H392.333Z" fill="#CEE401"/>
<path fill-rule="evenodd" clip-rule="evenodd" d="M533.333 597.667H774.333V775H533.333V597.667ZM583.333 647.667V725H724.333V647.667H583.333Z" fill="#CEE401"/>
<path fill-rule="evenodd" clip-rule="evenodd" d="M509.759 183.956L526.732 184C567.064 184.106 605.709 200.202 634.19 228.758C662.672 257.315 678.667 296.001 678.667 336.333L678.667 353.244L525.14 414.803C514.317 419.305 502.385 420.442 490.903 418.062C479.46 415.691 468.996 409.939 460.864 401.554C452.695 393.405 447.124 383.014 444.86 371.695C442.589 360.338 443.749 348.565 448.192 337.873L509.759 183.956ZM543.043 235.373L494.464 356.822L494.379 357.024C493.733 358.56 493.562 360.255 493.889 361.889C494.216 363.523 495.025 365.022 496.212 366.191L496.47 366.445L496.721 366.707C497.887 367.925 499.396 368.76 501.048 369.102C502.699 369.445 504.416 369.278 505.971 368.624L506.166 368.541L627.347 319.952C623.938 298.928 614.022 279.341 598.789 264.067C583.571 248.809 564.034 238.847 543.043 235.373Z" fill="#CEE401"/>
<path fill-rule="evenodd" clip-rule="evenodd" d="M678.667 127.059L763.184 70.8124L735.482 29.1876L628.667 100.274V198.721L604.23 223.415L639.77 258.585L678.667 219.279V127.059Z" fill="#CEE401"/>
<path fill-rule="evenodd" clip-rule="evenodd" d="M17.3333 725H176.667V775H17.3333V725Z" fill="#CEE401"/>
</svg>
