<svg width="800" height="800" viewBox="0 0 800 800" fill="none" xmlns="http://www.w3.org/2000/svg">
<path fill-rule="evenodd" clip-rule="evenodd" d="M283.724 514.617C283.724 500.81 294.917 489.617 308.724 489.617H475.39C489.197 489.617 500.39 500.81 500.39 514.617C500.39 528.424 489.197 539.617 475.39 539.617H308.724C294.917 539.617 283.724 528.424 283.724 514.617Z" fill="#CEE401"/>
<path fill-rule="evenodd" clip-rule="evenodd" d="M392.057 408.267C405.864 408.267 417.057 419.459 417.057 433.267V599.933C417.057 613.74 405.864 624.933 392.057 624.933C378.25 624.933 367.057 613.74 367.057 599.933V433.267C367.057 419.459 378.25 408.267 392.057 408.267Z" fill="#CEE401"/>
<path fill-rule="evenodd" clip-rule="evenodd" d="M315.236 97.6023C293.874 107.237 273.831 130.78 252.613 179.859C252.298 180.588 251.948 181.301 251.565 181.996C251.535 182.08 251.498 182.184 251.453 182.313C251.341 182.635 251.224 182.985 251.049 183.51C250.81 184.227 250.539 184.933 250.236 185.625L248.062 190.593L246.877 193.556C246.828 193.68 246.777 193.803 246.726 193.926L207.831 286.828C214.893 286.021 222.068 285.605 229.332 285.605H307.883L388.347 98.8734C354.792 89.0578 332.291 89.9098 315.236 97.6023ZM294.679 52.0238C334.155 34.2188 379.339 40.8515 430.932 60.5883C437.285 63.0185 442.374 67.9323 445.024 74.1964C447.674 80.4605 447.658 87.5342 444.979 93.786L347.291 320.498C343.341 329.666 334.315 335.605 324.332 335.605H229.332C210.117 335.605 191.761 339.558 175.086 346.624C165.726 350.59 154.896 348.493 147.692 341.32C140.489 334.148 138.346 323.327 142.271 313.95L200.528 174.801L201.787 171.653C201.886 171.406 201.988 171.161 202.095 170.918L203.961 166.653C204.529 164.955 205.586 161.982 207.195 158.918C229.541 107.553 255.899 69.5145 294.679 52.0238Z" fill="#CEE401"/>
<path fill-rule="evenodd" clip-rule="evenodd" d="M399.021 74.0877C404.143 62.1367 417.571 56.1068 429.906 60.2185C434.025 61.5915 439.716 64.0487 443.231 65.5662C444.454 66.0942 445.413 66.5085 445.951 66.7237C446.089 66.7788 446.227 66.8352 446.363 66.8927L519.97 97.8673C562.031 115.313 595.33 134.891 616.637 161.049C620.405 165.58 623.971 170.376 627.205 176.216C630.591 181.589 633.795 187.77 635.935 194.874C637.378 198.347 638.521 201.795 639.374 205.04C650.738 241.298 642.756 282.204 624.854 326.616C619.987 338.689 606.67 345.007 594.24 341.14C582.077 337.356 568.646 335.602 554.667 335.602H324.333C315.92 335.602 308.072 331.371 303.448 324.344C298.824 317.316 298.044 308.435 301.374 300.709L398.021 76.421L399.021 74.0877ZM435.217 116.449L362.328 285.602H554.667C564.944 285.602 575.4 286.333 585.797 287.99C595.778 257.5 596.747 235.809 591.533 219.586C591.364 219.062 591.213 218.533 591.08 217.999C590.753 216.691 590.217 215.062 589.488 213.422C588.954 212.221 588.516 210.98 588.177 209.71C587.723 208.006 586.756 205.751 584.637 202.454C584.288 201.912 583.961 201.356 583.655 200.788C582.373 198.408 580.805 196.153 578.128 192.94C578.062 192.861 577.996 192.781 577.93 192.7C564.577 176.266 540.603 160.55 500.758 144.029C500.717 144.012 500.677 143.995 500.637 143.978L435.217 116.449Z" fill="#CEE401"/>
<path fill-rule="evenodd" clip-rule="evenodd" d="M175.481 346.63C126.36 367.868 92.0574 416.703 92.0574 473.28V538.28C92.0574 544.928 92.6138 551.811 93.514 558.713C93.5828 559.24 93.6347 559.769 93.6697 560.299C96.9027 609.256 111.339 643.456 134.11 666.227C156.882 688.999 191.081 703.435 240.038 706.668C240.568 706.703 241.097 706.755 241.624 706.823C248.526 707.724 255.41 708.28 262.057 708.28H522.057C580.061 708.28 620.251 694.48 646.542 670.822C672.605 647.368 688.82 610.783 691.758 556.967C692.095 550.222 692.39 544.199 692.39 538.28V473.28C692.39 411.025 650.99 358.486 594.852 341.218C582.573 337.604 569.005 335.612 555.057 335.612H229.724C210.636 335.612 192.607 339.514 175.481 346.63ZM156.109 300.535C178.94 291.022 203.531 285.612 229.724 285.612H555.057C573.729 285.612 592.118 288.274 609.14 293.303C609.222 293.327 609.303 293.352 609.384 293.377C685.85 316.817 742.39 388.247 742.39 473.28V538.28C742.39 545.573 742.03 552.764 741.706 559.254L741.692 559.528L741.686 559.639C738.284 622.131 718.834 673.032 679.988 707.989C641.363 742.746 587.386 758.28 522.057 758.28H262.057C252.998 758.28 244.161 757.551 235.953 756.506C179.265 752.631 132.41 735.238 98.7547 701.583C65.0992 667.927 47.7066 621.073 43.8315 564.385C42.7863 556.177 42.0574 547.339 42.0574 538.28V473.28C42.0574 395.91 89.0232 329.451 155.828 300.654C155.921 300.614 156.015 300.574 156.109 300.535Z" fill="#CEE401"/>
<path fill-rule="evenodd" clip-rule="evenodd" d="M243.036 168.464C248.874 175.618 250.293 185.407 246.727 193.924L188.394 333.257C185.894 339.229 181.174 343.998 175.229 346.561C126.034 367.766 91.6666 416.64 91.6666 473.27C91.6666 487.077 80.4737 498.27 66.6666 498.27C52.8595 498.27 41.6666 487.077 41.6666 473.27V375.603C41.6666 268.797 117.641 179.678 218.834 159.741C227.893 157.956 237.199 161.31 243.036 168.464ZM94.9067 342.371C109.646 327.221 126.911 314.544 146.009 305.023L178.605 227.166C135.937 251.08 104.696 292.874 94.9067 342.371Z" fill="#CEE401"/>
<path fill-rule="evenodd" clip-rule="evenodd" d="M595.389 185.465C603.089 177.863 614.805 176.077 624.419 181.04C694.553 217.238 742.287 291.369 742.287 375.59V473.257C742.287 487.064 731.094 498.257 717.287 498.257C703.48 498.257 692.287 487.064 692.287 473.257C692.287 411.183 651.073 358.426 594.769 341.534C588.048 339.518 582.484 334.77 579.436 328.449C576.387 322.129 576.135 314.819 578.741 308.304C595.29 266.932 597.957 239.335 591.969 218.976C591.811 218.437 591.67 217.893 591.549 217.345C591.243 215.969 590.856 214.962 590.593 214.436C585.754 204.758 587.69 193.066 595.389 185.465ZM688.988 342.185C682.434 309.413 666.442 279.938 644.015 256.984C642.475 271.718 638.956 287.051 633.814 303.022C654.541 312.649 673.212 325.99 688.988 342.185Z" fill="#CEE401"/>
</svg>
