<svg width="800" height="800" viewBox="0 0 800 800" fill="none" xmlns="http://www.w3.org/2000/svg">
<path fill-rule="evenodd" clip-rule="evenodd" d="M200 500.342C193.37 500.342 187.011 502.975 182.322 507.664C177.634 512.352 175 518.711 175 525.342C175 531.972 177.634 538.331 182.322 543.019C187.011 547.708 193.37 550.342 200 550.342H400C406.63 550.342 412.989 547.708 417.678 543.019C422.366 538.331 425 531.972 425 525.342C425 518.711 422.366 512.352 417.678 507.664C412.989 502.975 406.63 500.342 400 500.342H200Z" fill="#CEE401"/>
<path fill-rule="evenodd" clip-rule="evenodd" d="M250 425.342C243.37 425.342 237.011 427.975 232.322 432.664C227.634 437.352 225 443.711 225 450.342C225 456.972 227.634 463.331 232.322 468.019C237.011 472.708 243.37 475.342 250 475.342H400C406.63 475.342 412.989 472.708 417.678 468.019C422.366 463.331 425 456.972 425 450.342C425 443.711 422.366 437.352 417.678 432.664C412.989 427.975 406.63 425.342 400 425.342H250Z" fill="#CEE401"/>
<path fill-rule="evenodd" clip-rule="evenodd" d="M325 350.342C318.37 350.342 312.011 352.975 307.322 357.664C302.634 362.352 300 368.711 300 375.342C300 381.972 302.634 388.331 307.322 393.019C312.011 397.708 318.37 400.342 325 400.342H400C406.63 400.342 412.989 397.708 417.678 393.019C422.366 388.331 425 381.972 425 375.342C425 368.711 422.366 362.352 417.678 357.664C412.989 352.975 406.63 350.342 400 350.342H325Z" fill="#CEE401"/>
<path fill-rule="evenodd" clip-rule="evenodd" d="M222.217 200.488C216.582 201.123 211.331 203.654 207.324 207.666L162.5 252.49L142.676 232.666C137.987 227.979 131.629 225.345 125 225.345C118.37 225.345 112.012 227.979 107.324 232.666C102.637 237.354 100.004 243.712 100.004 250.342C100.004 256.971 102.637 263.329 107.324 268.017L144.824 305.517C149.513 310.204 155.871 312.837 162.5 312.837C169.129 312.837 175.487 310.204 180.176 305.517L242.676 243.017C247.363 238.329 249.996 231.971 249.996 225.342C249.996 218.712 247.363 212.354 242.676 207.666C240.023 205.01 236.807 202.986 233.265 201.744C229.723 200.501 225.947 200.072 222.217 200.488Z" fill="#CEE401"/>
<path fill-rule="evenodd" clip-rule="evenodd" d="M175 100.342C92.4536 100.342 25 167.796 25 250.342C25 294.542 44.3587 334.407 75 361.914V650.342C75.0007 656.972 77.6348 663.33 82.3231 668.018C87.0113 672.707 93.3698 675.341 100 675.342H154.346C164.738 704.352 192.616 725.342 225 725.342C257.384 725.342 285.262 704.352 295.654 675.342H475H529.346C539.738 704.352 567.616 725.342 600 725.342C632.384 725.342 660.262 704.352 670.654 675.342H750C756.63 675.341 762.989 672.707 767.677 668.018C772.365 663.33 774.999 656.972 775 650.342V475.342C775.004 469.664 773.076 464.153 769.531 459.717L669.531 334.717C667.187 331.789 664.215 329.427 660.834 327.804C657.453 326.181 653.75 325.34 650 325.342H500V275.342C499.999 268.712 497.365 262.353 492.677 257.664C487.989 252.976 481.63 250.342 475 250.342H325C325 167.796 257.546 100.342 175 100.342ZM175 150.342C230.524 150.342 275 194.817 275 250.342C275 305.866 230.524 350.342 175 350.342C153.811 350.342 134.229 343.86 118.115 332.764C116.184 330.723 113.922 329.023 111.426 327.734C89.1387 309.444 75 281.649 75 250.342C75 194.817 119.476 150.342 175 150.342ZM316.357 300.342H450V625.342H295.654C285.262 596.332 257.384 575.342 225 575.342C192.616 575.342 164.738 596.332 154.346 625.342H125V391.699C140.657 397.273 157.484 400.342 175 400.342C240.03 400.342 295.662 358.468 316.357 300.342ZM500 375.342H550V500.342C550.001 506.972 552.635 513.33 557.323 518.018C562.011 522.707 568.37 525.341 575 525.342H725V625.342H670.654C660.262 596.332 632.384 575.342 600 575.342C567.616 575.342 539.738 596.332 529.346 625.342H500V375.342ZM600 375.342H637.988L717.969 475.342H600V375.342ZM225 625.342C239.103 625.342 250 636.239 250 650.342C250 664.445 239.103 675.342 225 675.342C210.897 675.342 200 664.445 200 650.342C200 636.239 210.897 625.342 225 625.342ZM600 625.342C614.103 625.342 625 636.239 625 650.342C625 664.445 614.103 675.342 600 675.342C585.897 675.342 575 664.445 575 650.342C575 636.239 585.897 625.342 600 625.342Z" fill="#CEE401"/>
</svg>
