<svg width="800" height="800" viewBox="0 0 800 800" fill="none" xmlns="http://www.w3.org/2000/svg">
<path d="M142.594 114.219H599.734V314.219H656.883V57.0781H85.4531V742.789H285.453V685.648H142.594V114.219Z" fill="#CEE401"/>
<path d="M199.742 171.359H542.602V228.5H199.742V171.359ZM199.742 285.648H485.453V342.789H199.742V285.648ZM199.742 399.93H371.172V457.07H199.742V399.93ZM605.641 358L343 620.641L342.594 741.453L464.219 741.859L726.859 479.219L605.641 358ZM646.047 479.219L626.18 499.086L585.766 458.68L605.641 438.805L646.047 479.219ZM585.781 539.492L484.828 640.445L444.422 600.039L545.375 499.086L585.781 539.492ZM399.93 684.5L400.063 644.391L404.016 640.438L444.422 680.844L440.633 684.633L399.93 684.5Z" fill="#CEE401"/>
</svg>
